<svg width="60" height="61" viewBox="0 0 60 61" fill="none" xmlns="http://www.w3.org/2000/svg">
<path d="M22.5389 2.12579C21.7883 4.37754 22.0613 5.87871 23.6989 7.72106C24.6542 8.88105 24.586 10.7234 23.4942 14.2034C22.6754 16.7281 24.8589 16.114 26.1554 13.4528C27.5883 10.4505 27.5201 9.76811 25.8142 6.97047C24.7907 5.2646 24.5177 4.03637 24.8589 2.33049C25.4048 -0.671847 23.5624 -0.808317 22.5389 2.12579Z" fill="#643427"/>
<path d="M16.4661 3.62688C15.2378 4.85511 15.5108 7.44804 17.1484 10.4504C18.6496 13.0433 18.6496 13.1798 17.4896 15.2268C16.6025 16.7962 16.4661 17.5468 17.0119 18.0927C18.1719 19.1845 20.4237 16.1139 20.4237 13.4527C20.4237 12.2927 19.8096 10.3139 18.9908 9.01744C17.899 7.1751 17.7625 6.35628 18.2402 5.12805C19.2637 2.94453 18.1037 1.98924 16.4661 3.62688Z" fill="#643427"/>
<path d="M29.2943 4.10453C28.2707 6.08335 28.4754 7.37981 30.1813 10.3139C31.6825 12.9751 31.6825 13.1116 30.4542 15.2268C29.5672 16.7962 29.4307 17.5468 29.9766 18.0927C31.1366 19.2527 33.3884 16.0457 33.3884 13.248C33.3884 11.8833 32.7742 9.97274 31.9554 8.81275C30.7954 7.17511 30.659 6.49276 31.2048 5.19629C32.3648 2.73983 30.5907 1.71631 29.2943 4.10453Z" fill="#643427"/>
<path d="M0.226111 21.5727C-0.0468291 22.1186 -0.0468291 26.0762 0.0896409 30.3068C0.362581 39.0409 1.93199 43.4079 6.4355 48.4573L8.96019 51.2549H4.79786C-0.115064 51.2549 -0.865649 52.142 0.840226 55.6902C2.95551 60.0573 3.7061 60.1937 26.9742 59.989L47.8541 59.7843L49.833 57.5326C51.0612 56.1679 51.8118 54.5985 51.8118 53.302V51.2549H45.9436H40.0071L42.6683 48.2526C45.0565 45.5914 45.6706 45.2503 48.4 45.182C52.7671 45.0456 56.5882 42.7256 58.4988 38.9726C59.6588 36.5844 60 34.8103 60 30.375C60 23.8927 60.0682 23.9609 53.5176 23.9609C49.56 23.9609 49.1506 23.8245 48.9459 22.3915C48.7412 20.8904 48.673 20.8904 35.2307 20.6857C22.6072 20.5492 21.7201 20.6174 21.9248 21.7092C22.1295 22.801 23.2895 22.9374 34.6166 23.1421L47.0353 23.2786V28.6009C47.0353 37.9491 44.1012 44.9091 38.3012 49.3444L35.913 51.2549H24.3813H12.8496L9.64254 48.2526C4.25198 43.2032 2.06846 36.9938 2.00022 26.8268V23.2786H6.02609C8.55078 23.2786 10.3249 22.9374 10.8025 22.3915C11.9625 20.8904 11.0072 20.5492 5.61668 20.5492C1.79552 20.5492 0.499051 20.8221 0.226111 21.5727ZM57.8165 31.7397C57.3388 38.9044 55.2235 41.702 49.56 42.7938C47.24 43.2032 46.8989 43.0667 47.1718 41.975C47.3083 41.1562 48.2636 40.5421 49.7647 40.2691C53.4494 39.5185 55.36 36.7891 55.0871 32.5586L54.8823 29.0786L52.0165 28.8739C50.0377 28.7374 49.0824 28.328 49.0824 27.6456C49.0824 26.8951 50.1059 26.6903 53.5859 26.6903H58.1576L57.8165 31.7397ZM53.1765 33.1727C53.1765 34.128 52.4259 35.6974 51.4706 36.5844C49.6283 38.495 48.0588 38.8362 48.673 37.1985C48.8777 36.5844 49.0824 35.0833 49.0824 33.7868C49.0824 31.6715 49.2871 31.4668 51.1294 31.4668C52.8353 31.4668 53.1765 31.7397 53.1765 33.1727ZM49.0824 54.1891C49.0824 54.7349 48.4683 55.6902 47.6494 56.4408C46.2847 57.669 44.92 57.7373 25.8825 57.7373C6.84491 57.7373 5.48021 57.669 4.11551 56.4408C0.703756 53.3702 1.1814 53.302 25.8825 53.302C44.8518 53.302 49.0824 53.4385 49.0824 54.1891Z" fill="#643427"/>
<path d="M15.9884 21.2316C15.4425 22.1186 16.2613 23.4151 17.0802 22.9375C17.899 22.3916 17.899 20.5492 17.0802 20.5492C16.6707 20.5492 16.1931 20.8222 15.9884 21.2316Z" fill="#643427"/>
<path d="M41.3036 31.8079C41.0989 32.4221 40.8942 33.7185 40.8942 34.6056C40.8942 36.4479 38.6424 41.2926 36.9365 43.2714C36.1177 44.2267 36.0495 44.6361 36.7318 45.3185C37.346 45.9326 37.8236 45.7961 38.9154 44.4314C41.4401 41.2244 42.9412 37.6762 43.1459 34.4691C43.2824 31.2621 42.1906 29.6244 41.3036 31.8079Z" fill="#643427"/>
<path d="M32.3648 47.0926C31.8871 47.9114 33.1836 48.7302 34.0707 48.1843C34.8212 47.7067 34.3436 46.4785 33.3883 46.4785C33.0471 46.4785 32.6377 46.7514 32.3648 47.0926Z" fill="#643427"/>
</svg>
