<svg width="25" height="28" viewBox="0 0 25 28" fill="none" xmlns="http://www.w3.org/2000/svg">
<path d="M24.9989 25.3943L24.1475 6.50373C24.1325 5.10915 22.9669 3.97788 21.5364 3.97788H17.2086C16.8574 1.75208 14.8784 0 12.497 0C10.115 0 8.13541 1.75208 7.78411 3.97788H3.46225C2.03217 3.97788 0.867 5.10918 0.851998 6.50378L0.00107402 25.3937C0.000369194 25.4097 0 25.426 0 25.442C0 26.8524 1.1713 28 2.61107 28H22.389C23.8287 28 25 26.8528 25 25.4424C25 25.4263 24.9996 25.4104 24.9989 25.3943ZM12.497 2.17866C13.6507 2.17866 14.6273 2.93916 14.9407 3.97786H10.0521C10.3657 2.93917 11.3428 2.17866 12.497 2.17866ZM22.389 25.8237H2.61107C2.39608 25.8237 2.22649 25.6647 2.21788 25.4599L3.06827 6.58108C3.06899 6.56507 3.06934 6.54627 3.06934 6.53023C3.06934 6.32092 3.2419 6.15422 3.46223 6.15422H7.7195V10.1352C7.7195 10.7369 8.21472 11.2246 8.82708 11.2246C9.43944 11.2246 9.93466 10.7369 9.93466 10.1352V6.15422H15.0362V10.1352C15.0362 10.7369 15.5315 11.2246 16.1438 11.2246C16.7562 11.2246 17.2514 10.7369 17.2514 10.1352V6.15422H21.5364C21.7572 6.15422 21.9301 6.32066 21.9301 6.52997C21.9301 6.54602 21.9304 6.56332 21.9312 6.57939L22.7821 25.4594C22.7735 25.664 22.6039 25.8237 22.389 25.8237Z" fill="#F9C06A"/>
</svg>
