<svg width="200" height="200" viewBox="0 0 200 200" fill="none" xmlns="http://www.w3.org/2000/svg">
<path d="M151.215 165.98C151.135 168.296 149.896 170.209 148.438 170.209C147.582 170.209 146.8 169.549 146.286 168.535C145.985 168.684 145.682 168.834 145.374 168.984C146.056 170.342 147.164 171.21 148.438 171.21C149.943 171.21 151.232 171.125 152.463 169.959C153.857 168.64 154.339 166.415 154.048 164.408C153.153 164.917 152.209 165.443 151.215 165.981V165.98Z" fill="#75340E"/>
<path d="M62.6299 162.712C61.2489 161.203 58.3829 161.598 57.7119 162.003C54.0059 163.378 54.2279 171.245 58.0459 172.125C59.2419 172.401 61.2189 172.171 62.4509 171.006C64.5919 168.98 64.4629 164.716 62.6299 162.712ZM56.0479 167.013C56.0479 164.748 57.2349 162.835 58.6389 162.835C60.0429 162.835 61.2299 164.749 61.2299 167.013C61.2299 169.277 60.0429 171.192 58.6389 171.192C57.2349 171.192 56.0479 169.278 56.0479 167.013Z" fill="#75340E"/>
<path d="M101.593 184.822C100.326 183.437 98.7251 183.575 97.3131 183.697C94.5141 183.943 93.0811 186.863 93.0811 189.673C93.0811 192.886 94.8851 195.5 97.1011 195.5C98.7531 195.5 100.091 195.4 101.394 194.168C103.783 191.908 103.673 187.095 101.593 184.822ZM94.0801 189.673C94.0801 187.056 95.4631 184.846 97.1001 184.846C98.7371 184.846 100.12 187.056 100.12 189.673C100.12 192.29 98.7371 194.5 97.1001 194.5C95.4631 194.5 94.0801 192.29 94.0801 189.673Z" fill="#75340E"/>
<path d="M189.435 105.459C162.674 91.8021 135.155 81.8581 107.743 75.6961C103.859 71.2731 99.143 66.0071 95.202 61.6831C90.76 56.8101 86.94 52.4421 82.442 49.9611C82.356 48.4041 81.2749 47.2621 79.4359 46.8041C77.7479 46.3851 76.013 46.7441 74.482 47.0631C66.9 48.6381 20.392 58.2111 13.103 61.1291C11.606 61.7281 10.742 62.2381 10.32 63.7491C9.77694 65.7001 9.87495 69.0951 11.795 70.5351C12.739 71.2441 14.019 71.1091 15.056 70.5191C16.189 70.1941 17.676 69.7821 19.445 69.3001C21.115 70.9171 20.276 70.0131 40.518 92.5801C40.682 110.207 44.207 130.145 50.804 145.877C50.858 146.008 50.804 145.963 52.567 147.492C53.102 149.863 53.765 153.357 55.499 158.376C56.437 161.089 58.813 162.588 61.11 164.041C72.865 171.475 84.6089 178.229 96.5979 184.399C96.7629 184.363 96.9309 184.344 97.1019 184.344C98.0839 184.344 98.9719 184.953 99.6099 185.934C100.547 186.407 101.485 186.876 102.424 187.342C104.38 188.311 106.568 189.35 108.795 189.35C116.886 189.35 146.894 175.164 152.818 172.068C154.543 171.166 158.361 169.625 159.089 167.665C159.756 165.872 158.006 164.638 156.372 163.668C159.601 161.807 162.75 159.835 165.812 157.755C166.403 157.351 181.022 132.225 189.681 106.06C189.76 105.822 189.65 105.568 189.434 105.457L189.435 105.459ZM15.71 68.5011C15.123 69.6281 13.394 70.4851 12.395 69.7351C11.013 68.6981 10.742 65.9601 11.283 64.0181C11.557 63.0371 12.198 62.3871 13.233 62.3871C13.997 62.3871 14.725 62.7671 15.09 63.1991C16.147 64.4531 16.25 67.4651 15.71 68.5011ZM107.782 76.7301C134.72 82.8091 161.724 92.6171 188.076 105.893C175.181 112.056 162.122 117.626 148.741 121.581C148.013 121.796 138.096 125.119 124.98 128.171C118.976 126.637 112.794 124.966 106.551 123.082C107.46 107.921 107.851 92.5401 107.781 76.7311L107.782 76.7301ZM78.513 149.199C72.308 146.133 66.2049 142.623 60.349 138.549C59.77 132.772 59.385 126.972 59.193 121.169C65.507 125.099 72.0719 128.499 78.7379 131.48C78.4829 137.381 78.407 143.293 78.513 149.199ZM78.535 150.325C78.644 155.346 78.8839 160.36 79.2549 165.356C73.4769 161.993 67.826 158.239 62.39 154.145C61.622 149.406 60.987 144.64 60.483 139.857C66.313 143.857 72.378 147.307 78.535 150.325ZM78.786 130.404C72.082 127.389 65.4879 123.948 59.155 119.965C59.006 114.716 59.0149 109.466 59.1839 104.228C65.8649 108.201 72.8479 111.64 79.9599 114.657C79.4249 119.887 79.034 125.14 78.786 130.404ZM122.46 146.031C129.737 144.272 136.932 142.231 144.021 139.917C142.15 145.821 140.214 151.73 138.223 157.612C131.691 159.891 125.051 161.91 118.323 163.659C119.853 157.974 121.234 152.092 122.46 146.031ZM117.275 163.703C111.15 161.91 104.807 159.919 98.4049 157.601C99.5539 151.812 100.631 146 101.631 140.184C108.356 142.366 115.012 144.257 121.453 145.97C120.215 152.07 118.821 157.987 117.275 163.703ZM122.677 144.949C123.702 139.788 124.617 134.499 125.418 129.093C133.086 127.302 140.741 125.185 148.357 122.752C148.171 127.255 146.55 131.901 144.392 138.743C137.254 141.093 130.007 143.164 122.677 144.949ZM121.65 144.987C115.201 143.271 108.534 141.377 101.802 139.188C102.697 133.936 103.53 128.682 104.297 123.438C111.111 125.54 117.866 127.379 124.413 129.056C123.606 134.489 122.684 139.803 121.65 144.987ZM100.841 138.873C93.822 136.563 86.7399 133.93 79.7659 130.841C80.0069 125.567 80.3929 120.303 80.9229 115.063C88.3249 118.16 95.859 120.809 103.329 123.138C102.564 128.376 101.733 133.626 100.84 138.873H100.841ZM79.719 131.914C86.656 134.969 93.6949 137.579 100.67 139.87C99.6729 145.676 98.6 151.477 97.454 157.255C91.478 155.062 85.4569 152.577 79.5199 149.693C79.4039 143.769 79.471 137.836 79.719 131.914ZM97.257 158.247C96.268 163.194 95.226 168.123 94.133 173.022C89.476 170.927 84.851 168.565 80.302 165.961C79.917 160.927 79.6639 155.875 79.5449 150.816C85.4129 153.644 91.3569 156.087 97.2559 158.247H97.257ZM98.2079 158.593C104.589 160.9 110.909 162.882 117.013 164.668C115.582 169.881 114.024 174.924 112.343 179.781C106.592 178.103 100.806 175.973 95.066 173.437C96.166 168.515 97.2139 163.563 98.2089 158.592L98.2079 158.593ZM118.022 164.77C124.712 163.046 131.317 161.058 137.816 158.812C136.112 163.822 134.369 168.812 132.593 173.76C126.418 176.08 120.025 178.06 113.432 179.69C115.082 174.891 116.615 169.912 118.022 164.77ZM139.014 158.394C145.52 156.109 151.917 153.567 158.185 150.775C156.385 155.46 154.488 160.102 152.496 164.69C146.531 167.929 140.299 170.799 133.823 173.292C135.589 168.358 137.321 163.386 139.014 158.394ZM139.421 157.19C141.403 151.319 143.33 145.423 145.192 139.532C151.799 137.344 158.314 134.918 164.717 132.261C162.856 138.041 160.845 143.778 158.69 149.453C152.393 152.288 145.962 154.87 139.421 157.19ZM145.563 138.355C147.631 131.779 149.255 127.109 149.368 122.427C156.214 120.213 163.028 117.743 169.788 115.024C168.36 120.378 166.801 125.712 165.116 131.012C158.705 133.695 152.181 136.145 145.563 138.355ZM105.53 122.771C83.3129 115.991 60.4 106.469 41.985 90.7901C58.103 84.9371 75.659 80.6091 94.177 77.8981C98.337 77.2891 102.632 76.6141 106.78 76.6021C106.852 92.4561 106.443 107.565 105.53 122.771ZM22.397 68.5021C40.912 63.5231 79.043 53.7191 80.022 53.1631C80.544 52.8671 81.167 52.5131 81.65 52.0241C85.684 54.9471 88.177 58.1611 103.719 75.7151C100.488 75.9361 97.2669 76.4361 94.0339 76.9081C75.5059 79.6121 57.937 83.9461 41.799 89.7941C37.824 85.2651 26.738 72.6821 22.397 68.5021ZM41.511 91.6991C46.758 96.1491 52.361 100.103 58.2039 103.64C58.0249 108.859 58.003 114.09 58.138 119.319C52.655 115.803 47.377 111.873 42.405 107.452C41.833 102.18 41.526 96.8831 41.511 91.6991ZM42.572 108.932C47.515 113.245 52.747 117.086 58.172 120.527C58.347 126.29 58.714 132.05 59.269 137.789C54.536 134.42 49.972 130.673 45.658 126.481C44.316 120.811 43.275 114.895 42.572 108.932ZM51.681 145.386C49.501 140.171 47.624 134.386 46.098 128.287C50.331 132.286 54.789 135.872 59.401 139.107C59.884 143.847 60.497 148.572 61.238 153.271C57.965 150.763 54.773 148.131 51.681 145.386ZM158.152 167.317C157.583 168.848 153.76 170.448 152.355 171.182C144.498 175.287 115.472 188.676 108.556 188.346C106.66 188.258 104.931 187.469 102.868 186.447C88.9209 179.538 75.201 171.786 62.056 163.458C59.779 162.016 57.318 160.581 56.444 158.05C55.377 154.962 54.499 151.778 53.828 148.576C70.7389 162.942 91.338 174.782 112.522 180.877C112.608 180.901 112.692 180.902 112.778 180.882C128.121 177.171 142.403 171.587 155.385 164.233C156.549 164.989 158.643 165.999 158.152 167.317ZM165.159 156.991C161.533 159.45 157.786 161.756 153.926 163.905C155.869 159.383 157.721 154.81 159.479 150.196C163.863 148.213 168.183 146.108 172.432 143.882C170.08 148.421 167.639 152.829 165.16 156.991H165.159ZM173.229 142.331C168.887 144.638 164.468 146.818 159.98 148.87C162.107 143.219 164.093 137.508 165.93 131.756C171.209 129.537 176.41 127.16 181.524 124.631C178.986 130.561 176.185 136.541 173.229 142.332V142.331ZM182.126 123.214C176.948 125.803 171.679 128.233 166.329 130.502C167.996 125.215 169.538 119.896 170.95 114.555C176.797 112.177 182.604 109.612 188.359 106.865C186.584 112.122 184.475 117.637 182.126 123.214Z" fill="#75340E"/>
<path d="M116.136 119.012C129.175 113.519 138.813 101.812 142.248 88.6661C144.415 80.3721 144.283 70.8431 150.565 58.9281C152.77 54.7461 155.8 49.8981 160.063 47.6561C161.444 46.9301 162.926 46.6611 164.432 46.3311C164.788 46.2531 164.813 45.6441 164.432 45.5851C161.78 45.1771 159.089 46.7131 157.101 48.3411C154.894 50.1491 153.149 52.4941 151.681 54.9221C142.074 70.7961 144.366 81.6901 140.135 93.0511C135.884 104.464 126.938 113.882 116.106 118.936C116.064 118.955 116.095 119.029 116.138 119.011L116.136 119.012Z" fill="#75340E"/>
<path d="M179.929 39.7128C179.216 39.6078 178.484 39.6558 177.79 39.8528C177.721 39.4728 177.562 39.1108 177.31 38.8178C177.401 38.4658 177.437 37.9368 177.994 37.2638C178.17 37.0508 178.14 36.7358 177.928 36.5598C177.716 36.3838 177.4 36.4138 177.224 36.6258C176.831 37.1018 176.552 37.6588 176.405 38.2538C175.054 37.9378 174.244 38.6798 173.989 39.6178C172.508 38.2228 170.934 36.9138 169.294 35.7168C168.59 35.2028 167.935 35.1788 167.245 36.1318C166.351 37.3628 165.413 38.9668 166.1 40.4628C166.474 41.2768 167.196 41.7678 168.041 42.0458C167.341 43.6878 168.138 45.5588 170.181 45.8938C170.01 46.1348 169.853 46.3668 169.713 46.5878C169.56 46.8308 169.275 47.2838 169.34 47.8038C169.44 48.5898 170.455 49.5748 171.97 49.5748C174.233 49.5748 175.681 47.5188 175.85 45.2068C175.922 44.2298 175.792 43.2748 175.608 42.3428C176.468 42.3668 177.44 41.7718 177.722 40.9228C177.739 40.9188 177.755 40.9138 177.771 40.9078C178.413 40.6728 179.108 40.6008 179.784 40.7018C180.055 40.7418 180.311 40.5538 180.351 40.2798C180.391 40.0058 180.203 39.7528 179.929 39.7128ZM167.008 40.0458C166.538 39.0218 167.32 37.7308 168.053 36.7198C168.285 36.3988 168.386 36.3638 168.419 36.3638C168.626 36.3288 171.932 39.0198 173.713 40.7368C172.075 41.5448 167.832 41.8408 167.007 40.0468L167.008 40.0458ZM168.898 43.8418C168.712 43.3798 168.755 42.8128 169.044 42.2768C169.455 42.3368 169.874 42.3618 170.279 42.3618C171.317 42.3618 172.623 42.2228 173.669 41.8398C172.576 42.9648 171.642 44.0118 170.896 44.9498C170.074 44.9668 169.201 44.5948 168.899 43.8428L168.898 43.8418ZM174.854 45.1338C174.758 46.4398 174.221 47.5318 173.379 48.1298C172.564 48.7088 171.214 48.7848 170.502 47.9758C170.261 47.7018 170.273 47.5758 170.559 47.1218C171.131 46.2158 172.287 44.6678 174.585 42.3298C174.777 43.2618 174.921 44.2068 174.853 45.1348L174.854 45.1338ZM176.506 40.9968C175.653 41.6268 175.1 41.3598 174.937 40.5598C174.8 39.8878 175.06 39.1848 175.814 39.1848C176.311 39.1848 176.666 39.3918 176.796 39.9738C176.868 40.2938 176.835 40.7528 176.506 40.9958V40.9968Z" fill="#75340E"/>
<path d="M118.777 50.9722C118.028 48.5712 117.084 45.8172 115.285 44.0382C115.348 43.1082 115.246 42.1542 115.082 41.2662C112.883 29.4112 101.952 18.4172 90.0011 16.1882C89.2401 16.0462 88.9041 17.1882 89.6771 17.3632C96.5731 18.9302 102.722 22.5202 107.356 27.8892C111.873 33.1242 114.308 39.7442 114.397 43.2972C113.636 42.7752 112.763 42.4492 111.819 42.5122C110.265 42.6162 108.602 43.6452 108.181 45.2152C107.783 46.7002 108.784 48.1492 110.253 48.4602C112.139 48.8602 114.346 47.8722 115.056 45.3912C116.459 47.1462 117.366 49.8802 117.989 51.9912C120.435 60.2832 120.046 69.2502 117.572 77.4862C115.162 85.5072 110.845 92.7422 105.689 99.2882C105.079 100.062 104.464 100.83 103.862 101.61C103.701 101.818 104.043 102.066 104.221 101.887C109.462 96.6322 115.228 87.6822 118.152 78.7512C121.069 69.8372 121.589 59.9822 118.778 50.9712L118.777 50.9722ZM112.846 47.1122C111.782 47.7652 109.84 47.9312 109.249 46.5532C108.605 45.0512 110.434 43.7522 111.735 43.6112C112.721 43.5042 113.596 43.9492 114.319 44.6022C114.159 45.6222 113.736 46.5652 112.846 47.1122Z" fill="#75340E"/>
<path d="M85.7367 12.2199C86.8797 10.8969 87.3007 8.94789 86.6177 6.66989C86.3207 5.67789 85.8987 4.95989 85.3307 4.47489C85.1217 4.29589 84.8087 4.31989 84.6287 4.52689C82.4887 6.98689 80.9387 9.45289 79.2997 12.1359C78.5937 11.4079 77.1427 11.1699 76.2817 11.8389C75.9767 11.7279 75.2657 11.6199 74.4447 10.8769C74.2397 10.6909 73.9237 10.7069 73.7387 10.9119C73.5537 11.1169 73.5687 11.4329 73.7737 11.6189C74.3087 12.1029 74.9437 12.4699 75.6287 12.6919C75.4607 13.0869 75.4087 13.4639 75.4517 13.8189C75.4387 13.8309 75.4257 13.8429 75.4137 13.8559C75.0367 14.2679 74.5547 14.5709 74.0187 14.7309C73.7537 14.8099 73.6037 15.0879 73.6827 15.3529C73.7597 15.6119 74.0347 15.7689 74.3047 15.6889C74.8957 15.5129 75.4377 15.2049 75.8907 14.7909C76.4067 15.3539 77.1937 15.6919 77.9847 15.5379C78.1717 15.5009 78.3497 15.4369 78.5147 15.3509C78.4337 16.8679 78.2967 19.4999 77.5207 23.9839C77.4667 24.2949 77.7097 24.5719 78.0177 24.5689C81.9407 24.5339 84.9647 20.7639 84.5737 17.5189C86.0537 17.2419 86.9427 16.2919 87.1607 15.2569C87.4197 14.0259 86.7057 12.8699 85.7367 12.2189V12.2199ZM85.0247 5.60189C85.2807 5.94189 85.4907 6.38889 85.6607 6.95589C86.8117 10.7929 84.3907 13.6439 79.9757 12.9469C81.5947 10.2929 83.0397 7.95689 85.0247 5.60089V5.60189ZM76.6487 14.1339C76.3787 13.8639 76.4077 13.4449 76.5247 13.1419C76.9157 12.1329 78.2707 12.3699 78.6467 12.9079C79.1657 13.6519 77.9137 15.3979 76.6487 14.1339ZM78.6147 23.5199C79.4397 18.5109 79.5067 15.2039 79.5957 14.3929C80.5467 14.3989 81.8067 14.7909 82.6827 15.7209C85.0657 18.2479 82.5057 22.9709 78.6147 23.5199ZM86.1837 15.0509C86.0077 15.8859 85.1687 16.4109 84.3497 16.5559C84.1547 16.0119 83.8467 15.4969 83.4107 15.0349C83.0097 14.6099 82.5487 14.2759 82.0657 14.0229C83.1897 13.9069 84.1797 13.5279 84.9687 12.9359C85.9257 13.4449 86.3387 14.3169 86.1837 15.0509Z" fill="#75340E"/>
</svg>
